HIERARCHY
ROOT Hips
{
	OFFSET 0.000000 0.000000 0.000000 
	CHANNELS 6 Xposition Yposition Zposition Yrotation Zrotation Xrotation 
	JOINT Lumbar
	{
		OFFSET 0.000000 0.000000 0.000000 
		CHANNELS 3 Zrotation Xrotation Yrotation
		JOINT Neck
		{
			OFFSET 0.000000 0.445665 0.000000 
			CHANNELS 3 Zrotation Xrotation Yrotation
			End Site
			{
				OFFSET 0.000000 0.227535 0.000000 
			}
		}
		JOINT RightShoulder
		{
			OFFSET 0.019635 0.377685 0.194865 
			CHANNELS 3 Zrotation Xrotation Yrotation
			JOINT RightElbow
			{
				OFFSET 0.000000 -0.243375 0.000000 
				CHANNELS 2 Zrotation Yrotation
				JOINT RightWrist
				{
					OFFSET 0.000000 -0.264825 0.000000 
					CHANNELS 2 Zrotation Xrotation
					End Site
					{
						OFFSET 0.006600 -0.176220 0.000990 
					}
				}
			}
		}
		JOINT LeftShoulder
		{
			OFFSET 0.019635 0.377685 -0.194865 
			CHANNELS 3 Zrotation Xrotation Yrotation
			JOINT LeftElbow
			{
				OFFSET 0.000000 -0.243375 0.000000 
				CHANNELS 2 Zrotation Yrotation
				JOINT LeftWrist
				{
					OFFSET 0.000000 -0.264825 0.000000 
					CHANNELS 2 Zrotation Xrotation
					End Site
					{
						OFFSET 0.006600 -0.176220 -0.000990 
					}
				}
			}
		}
	}
	JOINT RightHip
	{
		OFFSET 0.052140 -0.069960 0.075570 
		CHANNELS 3 Zrotation Xrotation Yrotation
		JOINT RightKnee
		{
			OFFSET 0.000000 -0.402270 0.000000 
			CHANNELS 1 Zrotation
			JOINT RightAnkle
			{
				OFFSET 0.000000 -0.404085 0.000000 
				CHANNELS 3 Zrotation Xrotation Yrotation
				End Site
				{
					OFFSET 0.204105 -0.089430 0.008415 
				}
			}
		}
	}
	JOINT LeftHip
	{
		OFFSET 0.052140 -0.069960 -0.075570 
		CHANNELS 3 Zrotation Xrotation Yrotation
		JOINT LeftKnee
		{
			OFFSET 0.000000 -0.402270 0.000000 
			CHANNELS 1 Zrotation
			JOINT LeftAnkle
			{
				OFFSET 0.000000 -0.404085 0.000000 
				CHANNELS 3 Zrotation Xrotation Yrotation
				End Site
				{
					OFFSET 0.204105 -0.089430 -0.008415 
				}
			}
		}
	}
}
MOTION
Frames: 33
Frame Time: 0.02
4e-05 0 7e-05 -179.63924 -39.7669 -3.62722 48.52444 3.05904 -1.91459 -14.81245 -1.76607 -0.56451 56.16898 -102.50561 55.63241 6.40399 92.17819 8.14205 -0.18383 10.2877 105.33038 -55.64043 9.41679 -79.08607 4.78861 -0.51553 44.23043 -4.07876 -10.91891 -21.63765 -6.77915 -1.91171 -3.16096 48.05644 9.71394 5.12039 -26.91434 -6.9703 2.16398 3.31088
-4e-05 -1e-05 0.00013 -179.64114 -39.77327 -3.62957 48.5223 3.06124 -1.90718 -14.81311 -1.75058 -0.56531 56.27797 -102.49722 55.6324 6.39074 92.17147 8.11466 -0.17812 10.40543 105.30308 -55.63911 9.41583 -79.00134 4.77581 -0.54755 44.23214 -4.07121 -10.86983 -21.63524 -6.77891 -1.91432 -3.16403 48.05776 9.70349 5.08321 -26.91445 -6.97001 2.16601 3.31167
-0.00012 -1e-05 0.00018 -179.64296 -39.77931 -3.6319 48.51984 3.06343 -1.89983 -14.81379 -1.73513 -0.5661 56.387 -102.48881 55.6324 6.37753 92.16478 8.08729 -0.17242 10.52295 105.27583 -55.63779 9.41489 -78.91689 4.76297 -0.57948 44.23347 -4.06374 -10.82112 -21.63281 -6.77867 -1.91691 -3.16708 48.0587 9.69307 5.04621 -26.91454 -6.96972 2.16802 3.31245
-0.0002 -2e-05 0.00023 -179.64483 -39.78558 -3.63424 48.51762 3.06563 -1.89246 -14.81445 -1.71969 -0.56689 56.49569 -102.48044 55.63239 6.36431 92.15809 8.05998 -0.16672 10.64033 105.24861 -55.63648 9.41393 -78.83242 4.75021 -0.61141 44.23509 -4.05624 -10.77224 -21.6304 -6.77843 -1.9195 -3.17014 48.05993 9.68266 5.00918 -26.91465 -6.96943 2.17004 3.31323
-0.00028 -3e-05 0.00028 -179.64683 -39.79237 -3.63664 48.5159 3.06786 -1.88502 -14.81508 -1.7042 -0.56768 56.60429 -102.4721 55.63239 6.35108 92.15137 8.03269 -0.16103 10.75791 105.22136 -55.63516 9.41294 -78.7477 4.73749 -0.64338 44.23731 -4.04863 -10.72287 -21.62801 -6.7782 -1.92213 -3.17322 48.06172 9.6722 4.97187 -26.91479 -6.96915 2.17208 3.31402
-0.00036 -4e-05 0.00034 -179.6483 -39.79688 -3.6388 48.51195 3.06997 -1.87784 -14.81589 -1.68883 -0.5685 56.71424 -102.46354 55.63239 6.33793 92.14472 8.00514 -0.15534 10.87529 105.19408 -55.63385 9.41212 -78.66381 4.72436 -0.67524 44.23682 -4.04145 -10.67551 -21.62551 -6.77794 -1.92463 -3.17622 48.06094 9.66188 4.93548 -26.91479 -6.96884 2.17403 3.31476
-0.00044 -5e-05 0.00039 -179.65078 -39.80579 -3.64143 48.51231 3.07229 -1.87017 -14.81632 -1.67325 -0.56924 56.82117 -102.45544 55.63238 6.32457 92.13797 7.97814 -0.14961 10.99285 105.16691 -55.63255 9.41093 -78.57832 4.71219 -0.70732 44.24157 -4.03344 -10.6243 -21.62322 -6.77773 -1.92737 -3.17937 48.06515 9.65132 4.89746 -26.91507 -6.96859 2.17616 3.31561
-0.00052 -6e-05 0.00044 -179.6524 -39.81096 -3.64365 48.50901 3.07445 -1.86291 -14.81711 -1.65786 -0.57006 56.9312 -102.44693 55.63238 6.31151 92.13124 7.95063 -0.14398 11.11043 105.13959 -55.63116 9.41015 -78.49433 4.69892 -0.73913 44.24187 -4.02614 -10.57635 -21.62076 -6.77748 -1.92991 -3.18239 48.06511 9.64092 4.86065 -26.91511 -6.96828 2.17815 3.31637
-0.0006 -7e-05 0.00049 -179.65267 -39.81026 -3.64525 48.4999 3.07632 -1.85632 -14.81831 -1.64271 -0.57098 57.04389 -102.43785 55.63238 6.29838 92.12482 7.92249 -0.13823 11.22736 105.11226 -55.63 9.40961 -78.41206 4.68514 -0.77089 44.23515 -4.01992 -10.53359 -21.61799 -6.77714 -1.93211 -3.1852 48.05838 9.63095 4.82645 -26.91477 -6.96788 2.17985 3.31697
-0.00067 -8e-05 0.00055 -179.65981 -39.83939 -3.65006 48.5202 3.07958 -1.84639 -14.81705 -1.62622 -0.57135 57.13786 -102.43184 55.63235 6.28432 92.11747 7.89796 -0.13244 11.34602 105.08553 -55.62854 9.4069 -78.31952 4.67677 -0.80379 44.26406 -4.00815 -10.46459 -21.61671 -6.77722 -1.93599 -3.1891 48.08564 9.61923 4.78065 -26.91634 -6.96795 2.18285 3.31831
-0.00075 -8e-05 0.0006 -179.65302 -39.80817 -3.64832 48.48108 3.08006 -1.84317 -14.82107 -1.61252 -0.57286 57.2735 -102.41946 55.6324 6.2731 92.11155 7.86582 -0.12719 11.46228 105.05721 -55.62707 9.40925 -78.24889 4.65544 -0.83375 44.22089 -4.00765 -10.44863 -21.61247 -6.77645 -1.9365 -3.19078 48.04413 9.61071 4.7571 -26.91405 -6.96708 2.18336 3.31824
-0.00085 -9e-05 0.00063 -179.60296 -39.5879 -3.62665 48.25511 3.07149 -1.86125 -14.83911 -1.6067 -0.57764 57.50871 -102.38852 55.6327 6.26336 92.11206 7.8119 -0.11975 11.56345 105.02655 -55.62787 9.4221 -78.23809 4.61059 -0.86024 43.95177 -4.04216 -10.59902 -21.59846 -6.77318 -1.92613 -3.18555 47.78719 9.61514 4.81428 -26.89968 -6.96304 2.17481 3.31297
-0.00094 -0.0001 0.00066 -179.53978 -39.31104 -3.59874 47.97359 3.06036 -1.88555 -14.8626 -1.60363 -0.58355 57.78966 -102.35133 55.63307 6.25813 92.11233 7.75006 -0.11357 11.66499 104.99366 -55.62631 9.44093 -78.24998 4.55035 -0.88314 43.6151 -4.08729 -10.79907 -21.58176 -6.76909 -1.91265 -3.17825 47.46579 9.62213 4.89073 -26.8817 -6.95813 2.16414 3.30649
-0.00103 -0.0001 0.00069 -179.48598 -39.07577 -3.57504 47.73341 3.05135 -1.90507 -14.88388 -1.59918 -0.58887 58.05786 -102.31775 55.6334 6.25436 92.11261 7.69302 -0.10919 11.77033 104.96076 -55.6268 9.45891 -78.25088 4.48947 -0.90441 43.3282 -4.12483 -10.96247 -21.56737 -6.76552 -1.90169 -3.17247 47.19184 9.62505 4.94475 -26.86637 -6.954 2.15599 3.30148
-0.00113 -0.00011 0.00072 -179.41797 -38.77472 -3.54571 47.42638 3.03838 -1.93275 -14.90389 -1.59536 -0.59455 58.28748 -102.28108 55.6338 6.23382 92.11826 7.63274 -0.0947 11.85392 104.93316 -55.6311 9.46793 -78.25213 4.46136 -0.93857 42.96224 -4.17381 -11.18433 -21.54842 -6.76136 -1.88615 -3.16427 46.84266 9.63972 5.05408 -26.84683 -6.94829 2.14148 3.29275
-0.00122 -0.00012 0.00075 -179.37614 -38.59559 -3.5264 47.2439 3.03294 -1.94506 -14.92803 -1.59079 -0.59973 58.61425 -102.24915 55.63406 6.25173 92.10646 7.57499 -0.10168 11.98918 104.89276 -55.61692 9.49839 -78.26125 4.36064 -0.94614 42.74295 -4.2018 -11.29758 -21.53828 -6.75819 -1.8793 -3.16056 46.63293 9.63118 5.05584 -26.8351 -6.94559 2.13943 3.29129
-0.00132 -0.00012 0.00079 -179.41243 -38.78165 -3.5383 47.43251 3.0499 -1.91201 -14.96059 -1.58425 -0.6033 59.1534 -102.23252 55.63384 6.35296 92.10005 7.54759 -0.16728 12.21725 104.82784 -55.64034 9.57632 -78.2584 4.06928 -0.87151 42.96265 -4.16647 -11.08693 -21.55374 -6.75827 -1.89826 -3.17034 46.84145 9.5523 4.72922 -26.84681 -6.95206 2.17468 3.31182
-0.00141 -0.00013 0.00083 -179.47504 -39.08972 -3.56013 47.74593 3.07435 -1.86352 -14.99746 -1.57672 -0.60634 59.80145 -102.21993 55.63348 6.49626 92.06642 7.52002 -0.25504 12.50939 104.74792 -55.63057 9.67844 -78.26753 3.70426 -0.77191 43.32915 -4.11019 -10.76766 -21.57806 -6.75932 -1.92588 -3.18458 47.18943 9.45097 4.29838 -26.86635 -6.96146 2.22209 3.33942
-0.00151 -0.00013 0.00086 -179.52387 -39.33223 -3.5761 47.99321 3.09474 -1.82303 -15.03342 -1.56915 -0.6096 60.42336 -102.2061 55.63321 6.6352 92.00974 7.47715 -0.3322 12.80131 104.66847 -55.576 9.7751 -78.29013 3.36894 -0.69028 43.61688 -4.06526 -10.50562 -21.59788 -6.75974 -1.94887 -3.19642 47.46204 9.36371 3.93309 -26.88166 -6.9691 2.26234 3.36272
-0.00159 -0.00014 0.00091 -179.57988 -39.61515 -3.59755 48.27802 3.11778 -1.7787 -15.06503 -1.56379 -0.61295 60.93028 -102.19291 55.63286 6.71412 92.10123 7.49468 -0.40944 12.95978 104.61688 -55.7669 9.84495 -78.23531 3.04893 -0.58115 43.95275 -4.01281 -10.2113 -21.61954 -6.76092 -1.97474 -3.20983 47.78256 9.26049 3.49286 -26.89961 -6.97851 2.30937 3.3905
-0.0017 -0.00015 0.00093 -179.62742 -39.84399 -3.61004 48.51542 3.13713 -1.73853 -15.10681 -1.55348 -0.616 61.72454 -102.17521 55.63262 6.92531 91.87935 7.39177 -0.49451 13.42581 104.50229 -55.4478 9.98087 -78.34223 2.67986 -0.5227 44.22461 -3.97111 -9.95877 -21.6396 -6.76076 -1.99662 -3.221 48.03781 9.18482 3.18223 -26.91402 -6.98495 2.34525 3.41072
-0.00187 -0.00014 0.00093 -179.64465 -39.89062 -3.59535 48.58826 3.14451 -1.71407 -15.17425 -1.53031 -0.61831 63.10021 -102.18176 55.63272 7.51281 90.78937 6.92277 -0.57057 14.59643 104.22902 -53.65223 10.25362 -78.91062 2.19138 -0.61545 44.2795 -3.96255 -9.83926 -21.65212 -6.75674 -2.0063 -3.22535 48.07413 9.19374 3.26829 -26.91621 -6.98243 2.34677 3.40775
-0.00206 -0.00014 0.00092 -179.65261 -39.87944 -3.57136 48.60991 3.14793 -1.69419 -15.252 -1.50209 -0.62036 64.80069 -102.17773 55.63293 8.22677 89.39058 6.34698 -0.65727 16.094 103.89031 -51.3604 10.59885 -79.63796 1.65594 -0.75841 44.26604 -3.96574 -9.76681 -21.66291 -6.75132 -2.01154 -3.22722 48.04112 9.23068 3.48609 -26.91468 -6.97684 2.33673 3.39704
-0.00223 -0.00014 0.00091 -179.66517 -39.89701 -3.55169 48.65734 3.15314 -1.67195 -15.32588 -1.47581 -0.62258 66.46748 -102.15245 55.63308 8.87032 88.13445 5.83185 -0.7571 17.53215 103.57444 -49.34383 10.93766 -80.28073 1.14411 -0.87589 44.28701 -3.96465 -9.67868 -21.67511 -6.74646 -2.01821 -3.22991 48.04315 9.25273 3.63438 -26.91521 -6.97269 2.33241 3.39028
-0.00243 -0.00014 0.00091 -179.67695 -39.9084 -3.53198 48.69858 3.15866 -1.65049 -15.39647 -1.45096 -0.62458 67.63662 -102.23279 55.63325 9.57484 86.85171 5.23224 -0.78666 18.61443 103.28878 -47.10965 11.16773 -80.97595 0.62248 -1.00659 44.29883 -3.95855 -9.56346 -21.68497 -6.74194 -2.0276 -3.23402 48.03507 9.28277 3.81854 -26.91441 -6.96845 2.32663 3.38196
-0.00258 -0.00014 0.00088 -179.68786 -39.91726 -3.51002 48.73881 3.16249 -1.6285 -15.4763 -1.42198 -0.62698 69.94373 -102.09627 55.63341 10.17571 85.5713 4.82494 -0.9588 20.49176 102.92283 -45.21945 11.63819 -81.59957 0.10809 -1.11842 44.31159 -3.96572 -9.51631 -21.69921 -6.73637 -2.03022 -3.23457 48.02978 9.30354 3.96212 -26.91541 -6.96363 2.32087 3.37491
-0.0026 -0.00015 0.00078 -179.69808 -39.9332 -3.4839 48.78904 3.16265 -1.60558 -15.57908 -1.38248 -0.63051 75.07896 -101.31823 55.6335 10.51352 84.19883 4.61248 -1.57506 24.65877 102.36235 -44.29666 12.78765 -81.98492 -0.3455 -1.19791 44.34244 -4.00867 -9.65424 -21.72568 -6.72819 -2.01472 -3.22549 48.04825 9.28826 3.94902 -26.92203 -6.95776 2.31874 3.3738
-0.00258 -0.00017 0.00066 -179.70758 -39.94777 -3.45584 48.83908 3.16121 -1.5817 -15.69069 -1.33897 -0.63452 81.3806 -100.3333 55.63357 10.73358 82.86923 4.66088 -2.32535 29.56586 101.71707 -43.73283 14.17513 -82.29213 -0.79298 -1.25174 44.3758 -4.06427 -9.85802 -21.75661 -6.71901 -1.99264 -3.21297 48.07117 9.26347 3.89321 -26.93058 -6.95143 2.31679 3.37409
-0.00257 -0.00019 0.00054 -179.71786 -39.96268 -3.42876 48.88879 3.16043 -1.55725 -15.79841 -1.29766 -0.63826 87.31549 -99.46951 55.63364 10.97027 81.63781 4.83256 -2.97827 34.0397 101.10873 -43.10329 15.42576 -82.63726 -1.26501 -1.29522 44.40845 -4.11293 -10.02651 -21.78566 -6.71034 -1.97385 -3.20223 48.0922 9.24549 3.86583 -26.93837 -6.94542 2.31422 3.37332
-0.00258 -0.00021 0.00045 -179.72656 -39.97776 -3.40092 48.93971 3.15976 -1.53727 -15.9064 -1.25501 -0.64194 92.61702 -98.48039 55.63375 11.36198 79.91022 3.99605 -3.78176 38.99941 100.52222 -42.14322 16.78009 -82.9813 -1.65623 -1.42953 44.43817 -4.16719 -10.21911 -21.81412 -6.70137 -1.95354 -3.19045 48.11121 9.21795 3.8056 -26.94558 -6.93885 2.31363 3.37407
-0.00253 -0.00024 0.0003 -179.73767 -39.99173 -3.37433 48.98727 3.15859 -1.50763 -16.01523 -1.21375 -0.64618 99.45428 -97.71648 55.63377 11.40763 79.21604 5.30211 -4.30802 43.03678 99.84914 -41.84024 17.99902 -83.30255 -2.2019 -1.37272 44.474 -4.21241 -10.37668 -21.84481 -6.6928 -1.935 -3.18009 48.13527 9.20771 3.80105 -26.95444 -6.93336 2.30899 3.37209
-0.00233 -0.00028 3e-05 -179.76277 -40.01359 -3.35151 49.0386 3.15596 -1.45209 -16.12892 -1.18169 -0.64919 110.72934 -97.51318 55.63357 10.4698 81.49566 12.63569 -4.00005 45.07215 99.14908 -44.36165 18.5664 -83.61752 -3.27951 -0.75254 44.53945 -4.23145 -10.42013 -21.88141 -6.68576 -1.92205 -3.17406 48.18268 9.24735 3.96705 -26.96791 -6.93099 2.29415 3.36241
-0.00207 -0.00034 -0.00029 -179.78897 -40.03311 -3.33004 49.08485 3.15301 -1.38678 -16.24225 -1.15032 -0.65319 123.41871 -97.56499 55.63329 9.19744 84.79525 22.08091 -3.41843 46.03622 98.33249 -47.35839 19.02653 -83.9048 -4.49533 0.05181 44.60929 -4.24057 -10.42607 -21.92001 -6.67913 -1.91131 -3.16966 48.23392 9.30448 4.18812 -26.98293 -6.92973 2.27516 3.34998
